<!-- icon666.com - MILLIONS OF FREE VECTOR ICONS --><svg id="bold" enable-background="new 0 0 24 24" viewBox="0 0 24 24" xmlns="http://www.w3.org/2000/svg"><path d="m17.25 15.5c-4.82 0-8.75-3.93-8.75-8.75 0-2.71 1.24-5.14 3.19-6.75h-8.94c-1.52 0-2.75 1.23-2.75 2.75v18.5c0 1.52 1.23 2.75 2.75 2.75h14.5c1.52 0 2.75-1.23 2.75-2.75v-6.19c-.86.28-1.79.44-2.75.44zm-11 2h-.5v3.75c0 .414-.336.75-.75.75s-.75-.336-.75-.75v-3.75h-.5c-.414 0-.75-.336-.75-.75s.336-.75.75-.75h2.5c.414 0 .75.336.75.75s-.336.75-.75.75zm5.656 3.386c.201.362.071.819-.292 1.02-.115.064-.24.094-.364.094-.263 0-.519-.139-.656-.386l-.594-1.069-.594 1.07c-.137.246-.393.385-.656.385-.124 0-.249-.03-.364-.094-.362-.201-.493-.658-.292-1.02l1.048-1.886-1.048-1.886c-.201-.362-.071-.819.292-1.02.361-.202.818-.071 1.02.292l.594 1.069.594-1.07c.201-.362.659-.493 1.02-.292.362.201.493.658.292 1.02l-1.048 1.887zm4.344-3.386h-.5v3.75c0 .414-.336.75-.75.75s-.75-.336-.75-.75v-3.75h-.5c-.414 0-.75-.336-.75-.75s.336-.75.75-.75h2.5c.414 0 .75.336.75.75s-.336.75-.75.75z"></path><path d="m17.25 0c-3.722 0-6.75 3.028-6.75 6.75s3.028 6.75 6.75 6.75 6.75-3.028 6.75-6.75-3.028-6.75-6.75-6.75zm2.75 7.75h-1.75v1.75c0 .552-.448 1-1 1s-1-.448-1-1v-1.75h-1.75c-.552 0-1-.448-1-1s.448-1 1-1h1.75v-1.75c0-.552.448-1 1-1s1 .448 1 1v1.75h1.75c.552 0 1 .448 1 1s-.448 1-1 1z"></path></svg>